<?xml version="1.0" encoding="UTF-8"?>
<svg width="181px" height="46px" viewBox="0 0 181 46" version="1.1" xmlns="http://www.w3.org/2000/svg" xmlns:xlink="http://www.w3.org/1999/xlink">
    <title>Group</title>
    <defs>
        <linearGradient x1="0.0202767153%" y1="50.0064898%" x2="100.009517%" y2="50.0064898%" id="linearGradient-1">
            <stop stop-color="#413399" offset="0%"></stop>
            <stop stop-color="#A42F97" offset="52.35%"></stop>
            <stop stop-color="#D8202E" offset="100%"></stop>
        </linearGradient>
    </defs>
    <g id="Page-1" stroke="none" stroke-width="1" fill="none" fill-rule="evenodd">
        <g id="Group" transform="translate(0.599676, 0.000000)" fill-rule="nonzero">
            <path d="M38.1103242,14.0983155 L30.6303242,9.89831549 C30.6303242,14.2183155 30.6603242,18.5483155 30.6103242,22.8683155 C30.6003242,24.1083155 30.4303242,25.3583155 30.2003242,26.5683155 C29.9203242,28.0583155 29.2303242,29.3983155 28.3303242,30.6083155 C26.3303242,33.2983155 23.7503242,35.0883155 20.4103242,35.7083155 C17.3703242,36.2683155 14.4403242,35.9883155 11.7503242,34.4883155 C7.8003242,32.2983155 5.5103242,28.9183155 5.1103242,24.3383155 C4.8803242,21.7283155 5.2403242,19.1783155 6.5503242,16.8983155 C9.0103242,12.6183155 12.7303242,10.3283155 17.7003242,10.2383155 C18.4703242,10.2283155 19.1903242,10.3883155 19.8203242,10.8383155 C20.0803242,11.0183155 20.3003242,11.2583155 20.5903242,11.5283155 C20.8203242,11.9583155 20.9403242,11.9783155 21.0703242,12.7083155 C21.2003242,13.3683155 21.2203242,14.1083155 21.0603242,14.7483155 C20.6703242,16.3683155 19.1303242,17.0683155 17.7003242,17.0983155 C16.9503242,17.1183155 16.1403242,17.2183155 15.4603242,17.5183155 C12.4303242,18.8883155 10.9503242,22.2883155 12.3203242,25.4883155 C13.5803242,28.4383155 16.4603242,29.6683155 19.4303242,28.9183155 C22.0003242,28.2683155 23.8703242,25.8883155 23.8503242,23.0583155 C23.8103242,17.3983155 23.8303242,11.7383155 23.8503242,6.08831549 L15.2803242,1.27831549 C8.6503242,-2.44168451 0.290324205,2.40831549 0.220324205,10.0083155 L0.110324205,23.0983155 L-8.8817842e-14,36.1883155 C-0.0596757953,43.7883155 8.2203242,48.4383155 14.9103242,44.5583155 L26.4303242,37.8783155 L37.9503242,31.1983155 C44.6503242,27.3283155 44.7303242,17.8183155 38.1103242,14.0983155 Z" id="XMLID_225_-Copy" fill="url(#linearGradient-1)"></path>
            <text id="XMLID_1868_-Copy" fill="#000000" font-family="Helvetica" font-size="22.8748" font-weight="normal">
                <tspan x="55.1297242" y="30.3926155">Dreamsland</tspan>
            </text>
        </g>
    </g>
</svg>