<svg id="Layer_1" data-name="Layer 1" xmlns="http://www.w3.org/2000/svg" xmlns:xlink="http://www.w3.org/1999/xlink" viewBox="0 0 2610 650"><defs><style>.cls-1{fill:url(#linear-gradient);}.cls-2{fill:url(#linear-gradient-2);}.cls-3{fill:url(#linear-gradient-3);}.cls-4{fill:url(#linear-gradient-4);}.cls-5{fill:url(#linear-gradient-5);}.cls-6{fill:url(#linear-gradient-6);}.cls-7{fill:url(#linear-gradient-7);}.cls-8{fill:url(#linear-gradient-8);}.cls-9{fill:#fff;}</style><linearGradient id="linear-gradient" x1="30.51" y1="191.53" x2="233.38" y2="191.53" gradientUnits="userSpaceOnUse"><stop offset="0" stop-color="#201d5b"/><stop offset="1" stop-color="#00abec"/></linearGradient><linearGradient id="linear-gradient-2" x1="114.35" y1="175.85" x2="358.35" y2="175.85" xlink:href="#linear-gradient"/><linearGradient id="linear-gradient-3" x1="77.07" y1="329.24" x2="161.05" y2="329.24" xlink:href="#linear-gradient"/><linearGradient id="linear-gradient-4" x1="259.7" y1="298.01" x2="409.26" y2="298.01" xlink:href="#linear-gradient"/><linearGradient id="linear-gradient-5" x1="172.86" y1="458.47" x2="398.2" y2="458.47" xlink:href="#linear-gradient"/><linearGradient id="linear-gradient-6" x1="255.52" y1="474.15" x2="526.56" y2="474.15" xlink:href="#linear-gradient"/><linearGradient id="linear-gradient-7" x1="222.81" y1="320.8" x2="316.09" y2="320.8" xlink:href="#linear-gradient"/><linearGradient id="linear-gradient-8" x1="403.57" y1="351.99" x2="569.7" y2="351.99" xlink:href="#linear-gradient"/></defs><path class="cls-1" d="M252.57,125.79c13.47-16,28.84-30.81,46.86-41.61C308,78.06,317.72,74,327,69.24l3.53-1.7,3.69-1.31,7.38-2.62,1.16-.4a191.15,191.15,0,0,0-42.27-4.75c-94.48,0-172.87,68.76-187.94,159a215.63,215.63,0,0,0,13,25.26c7.14,11.6,14.84,22.88,23.9,33a240.23,240.23,0,0,0,29.13,28.54c8.68,7.48,18.15,13.93,27.77,20.35l0-72.42a95.88,95.88,0,0,1,3.72-26.3,195.57,195.57,0,0,1,11.37-45.65A193.6,193.6,0,0,1,252.57,125.79Z"/><path class="cls-2" d="M344.45,63.57,342,64.62l-7.16,3-3.58,1.51-3.39,1.9c-9,5.12-18.48,9.4-26.68,15.76-17.39,11.17-32.44,25.64-45.41,41.55-3.1,4.1-6.59,7.93-9.37,12.26l-8.4,13-7.26,13.66c-2.23,4.65-4.19,9.42-6.37,14.11-2,4.76-3.61,9.67-5.45,14.5-1.49,5-3.06,9.89-4.34,14.9-.57,2.11-1.08,4.24-1.58,6.36,13.8-35.28,47.72-60.26,87.48-60.26,2.45,0,8.34-.22,8.34-.22,20.25-.2,40.13,4.9,58.88,12.22a218.38,218.38,0,0,1,52.11,30.46c7.59,6.66,15.45,13,22.2,20.52,3.41,3.71,7.23,7,10.29,11.06l9.4,11.82A125.78,125.78,0,0,1,470.43,255l8.31,12.56c3.86,6.78,7.52,13.66,11.15,20.54V227.64A190.76,190.76,0,0,0,344.45,63.57Z"/><path class="cls-3" d="M176,307.57c-11.44-8-21.41-17.89-30.69-28.28a175.31,175.31,0,0,1-23.4-34.57,194.86,194.86,0,0,1-8.52-19c-.48-1.44-1-2.87-1.42-4.31-.33,2.24-.65,4.47-.9,6.74V437c52.63,0,95.3,4.32,95.3-48.32V325.64c-4.38-2.09-8.75-4.22-13-6.62C187.5,315.31,181.43,311.87,176,307.57Z"/><path class="cls-4" d="M468.41,256.45a122.72,122.72,0,0,0-9.07-11.86c-6.47-7.56-12.71-15.31-19.94-22.15-6.74-7.34-14.56-13.49-22.08-19.95-15.72-12.08-32.63-22.71-51-30.34A180.08,180.08,0,0,0,320.17,159c42.53,9.17,74.44,47.38,74.44,93.17l0,89.56A95.29,95.29,0,0,0,489.89,437V289c-4.24-6.82-8.35-13.7-12.74-20.39Z"/><path class="cls-5" d="M482.35,583.77l-3.7-1.31-3.52-1.7c-9.27-4.79-19-8.82-27.56-14.94-18-10.8-33.4-25.59-46.87-41.61a193.84,193.84,0,0,1-31.13-54.43,196.57,196.57,0,0,1-11.37-45.65,96.26,96.26,0,0,1-3.72-26.3l0-72.42c-9.61,6.42-19.09,12.87-27.77,20.35a241.69,241.69,0,0,0-29.13,28.54c-9.05,10.15-16.75,21.43-23.89,33a214.17,214.17,0,0,0-13,25.26c15.08,90.19,93.47,159,188,159a191.06,191.06,0,0,0,42.26-4.75l-1.16-.4Z"/><path class="cls-6" d="M618.57,395a127.5,127.5,0,0,1-8.73,12.28l-9.41,11.82c-3.06,4-6.88,7.35-10.28,11.06-6.75,7.51-14.62,13.86-22.2,20.52a218.38,218.38,0,0,1-52.11,30.46c-18.75,7.32-38.64,12.42-58.89,12.22,0,0-5.88-.22-8.34-.22-39.75,0-73.68-25-87.47-60.26.49,2.12,1,4.25,1.57,6.36,1.28,5,2.86,9.95,4.35,14.9,1.83,4.83,3.45,9.74,5.45,14.5,2.17,4.69,4.14,9.47,6.37,14.11l7.26,13.66,8.39,13c2.78,4.33,6.28,8.16,9.38,12.26,13,15.91,28,30.38,45.4,41.55,8.2,6.36,17.68,10.64,26.68,15.76l3.4,1.9,3.58,1.51,7.16,3,2.45,1A190.76,190.76,0,0,0,638,422.36V361.88c-3.63,6.88-7.29,13.76-11.15,20.54Z"/><path class="cls-7" d="M270,405.28a175.36,175.36,0,0,1,23.41-34.57c9.28-10.39,19.25-20.3,30.69-28.28,5.47-4.3,11.55-7.74,17.39-11.45,4.23-2.4,8.6-4.53,13-6.62V271c0-52.63-42.67-58-95.3-58v208.9c.24,2.27.57,4.5.89,6.74.47-1.44.95-2.87,1.43-4.31A194.79,194.79,0,0,1,270,405.28Z"/><path class="cls-8" d="M542.72,270.3l0,127.53c0,45.79-31.91,84-74.44,93.17a180.27,180.27,0,0,0,46.2-13.15c18.33-7.63,35.24-18.26,51-30.34,7.53-6.46,15.35-12.61,22.08-19.95,7.24-6.84,13.47-14.59,20-22.15a126,126,0,0,0,9.07-11.86l8.74-12.15c4.38-6.69,8.5-13.57,12.73-20.39V213C585.39,213,542.72,217.67,542.72,270.3Z"/><path class="cls-9" d="M753.85,429.08V270h42l33,58.31a460.82,460.82,0,0,1,26,54.54h.71c-2.36-21-3.07-42.5-3.07-66.34V270h33.05V429.08H847.82l-34-61.38a592,592,0,0,1-27.62-56.19l-.71.23c.94,21,1.42,43.44,1.42,69.41v47.93Z"/><path class="cls-9" d="M952.63,270v91.6c0,27.38,10.39,41.31,28.8,41.31,18.89,0,29.28-13.22,29.28-41.31V270h35.88V359.2c0,49.1-24.79,72.48-66.34,72.48-40.13,0-63.74-22.2-63.74-72.95V270Z"/><path class="cls-9" d="M1160,287.43h-48.4V270h117.81v17.47h-48.63V429.08H1160Z"/><path class="cls-9" d="M1329.46,354.48h-61.85v57.36h68.94v17.24h-89.48V270H1333v17.23h-65.4v50.29h61.85Z"/><path class="cls-9" d="M1474.41,423.88c-7.55,3.78-22.66,7.56-42,7.56-44.85,0-78.61-28.33-78.61-80.5,0-49.82,33.76-83.58,83.1-83.58,19.83,0,32.34,4.25,37.77,7.08l-5,16.77c-7.79-3.78-18.88-6.61-32.11-6.61-37.3,0-62.08,23.84-62.08,65.63,0,38.95,22.42,64,61.14,64,12.51,0,25.26-2.6,33.53-6.61Z"/><path class="cls-9" d="M1520.68,270v66.57h77V270h20.78V429.08h-20.78v-74.6h-77v74.6h-20.54V270Z"/><path class="cls-9" d="M1654.06,429.08V270h22.43l51,80.5a450.41,450.41,0,0,1,28.57,51.71l.47-.24c-1.89-21.25-2.36-40.61-2.36-65.4V270h19.36V429.08h-20.78l-50.52-80.74c-11.09-17.71-21.72-35.89-29.74-53.12l-.71.23c1.18,20.07,1.65,39.19,1.65,65.64v68Z"/><path class="cls-9" d="M1945.38,347.87c0,54.77-33.29,83.81-73.89,83.81-42,0-71.54-32.58-71.54-80.74,0-50.53,31.4-83.58,73.9-83.58C1917.29,267.36,1945.38,300.65,1945.38,347.87Zm-123.47,2.59c0,34,18.41,64.45,50.76,64.45,32.58,0,51-30,51-66.1,0-31.63-16.52-64.69-50.76-64.69C1838.91,284.12,1821.91,315.52,1821.91,350.46Z"/><path class="cls-9" d="M1972.05,270h20.54V411.84h68v17.24h-88.53Z"/><path class="cls-9" d="M2210.26,347.87c0,54.77-33.29,83.81-73.9,83.81-42,0-71.53-32.58-71.53-80.74,0-50.53,31.4-83.58,73.89-83.58C2182.16,267.36,2210.26,300.65,2210.26,347.87Zm-123.47,2.59c0,34,18.41,64.45,50.75,64.45,32.58,0,51-30,51-66.1,0-31.63-16.53-64.69-50.76-64.69C2103.78,284.12,2086.79,315.52,2086.79,350.46Z"/><path class="cls-9" d="M2358,422a148.39,148.39,0,0,1-48.87,8.73c-24.08,0-43.91-6.14-59.49-21-13.69-13.22-22.19-34.47-22.19-59.26.23-47.45,32.81-82.15,86.17-82.15,18.41,0,32.81,4,39.66,7.31l-5,16.77c-8.5-3.78-19.12-6.85-35.18-6.85-38.71,0-64,24.08-64,64,0,40.37,24.31,64.21,61.38,64.21,13.45,0,22.66-1.89,27.38-4.25V362h-32.34V345.51H2358Z"/><path class="cls-9" d="M2424.85,429.08V361.56L2374.56,270h23.37l22.43,43.91c6.14,12,10.86,21.72,15.82,32.82h.47c4.49-10.39,9.92-20.78,16.06-32.82l22.9-43.91H2499l-53.36,91.36v67.76Z"/></svg>